Coordinates
version=1
nRows=32
nColumns=12
inDegrees=yes

Units are S.I. units (second, meters, Newtons, ...)
Angles are in degrees

endheader
time	SC_y	SC_z	SC_x	AC_y	AC_z	AC_x	GH_y	GH_z	GH_yy	EL_x	PS_y
       0.0              -59.88           1.13          84.66          54.23         -7.095          3.144          154.9         -17.86          -32.7          102.9          15.91
   0.01822              -59.88          1.134          84.65          54.23         -7.093          3.145          154.9         -17.85         -32.71          102.9          15.93
   0.03645              -59.88          1.139          84.64          54.23         -7.091          3.145          154.8         -17.84         -32.71          102.9          15.95
   0.05467              -59.88          1.144          84.63          54.23         -7.089          3.146          154.8         -17.83         -32.72          102.9          15.97
   0.07289              -59.88          1.149          84.63          54.23         -7.087          3.147          154.8         -17.81         -32.72          102.9          15.99
   0.09112              -59.88          1.155          84.62          54.23         -7.084          3.148          154.7          -17.8         -32.73          102.9          16.01
    0.1093              -59.87          1.161          84.61          54.23         -7.081          3.149          154.7         -17.78         -32.73          102.9          16.04
    0.1276              -59.87          1.167           84.6          54.23         -7.078           3.15          154.6         -17.76         -32.74          102.9          16.06
    0.1458              -59.87          1.174          84.59          54.23         -7.075          3.152          154.6         -17.74         -32.74          102.9          16.09
     0.164              -59.87          1.182          84.58          54.23         -7.072          3.153          154.5         -17.72         -32.75          102.9          16.12
    0.1822              -59.86           1.19          84.57          54.22         -7.068          3.154          154.5          -17.7         -32.76          102.9          16.15
    0.2005              -59.86          1.198          84.56          54.22         -7.064          3.156          154.4         -17.68         -32.77          102.8          16.19
    0.2187              -59.86          1.207          84.54          54.22          -7.06          3.157          154.4         -17.65         -32.77          102.8          16.23
    0.2369              -59.85          1.217          84.53          54.22         -7.056          3.159          154.3         -17.63         -32.78          102.8          16.27
    0.2551              -59.85          1.228          84.51          54.22         -7.051          3.161          154.2          -17.6         -32.79          102.8          16.31
    0.2733              -59.84           1.24          84.49          54.22         -7.046          3.163          154.1         -17.57          -32.8          102.8          16.36
    0.2916              -59.84          1.252          84.48          54.22          -7.04          3.165          154.0         -17.53         -32.81          102.8          16.41
    0.3098              -59.83          1.266          84.46          54.22         -7.033          3.168          154.0         -17.49         -32.83          102.8          16.47
     0.328              -59.83          1.281          84.43          54.22         -7.027          3.171          153.8         -17.45         -32.84          102.8          16.53
    0.3462              -59.82          1.298          84.41          54.22         -7.019          3.174          153.7         -17.41         -32.86          102.8           16.6
    0.3645              -59.82          1.316          84.38          54.22         -7.011          3.177          153.6         -17.36         -32.87          102.8          16.67
    0.3827              -59.81          1.336          84.35          54.22         -7.002           3.18          153.5          -17.3         -32.89          102.7          16.75
    0.4009               -59.8          1.358          84.32          54.21         -6.992          3.184          153.3         -17.24         -32.91          102.7          16.84
    0.4191              -59.79          1.382          84.28          54.21         -6.981          3.189          153.1         -17.18         -32.93          102.7          16.94
    0.4374              -59.78          1.409          84.24          54.21         -6.968          3.193          153.0          -17.1         -32.96          102.7          17.05
    0.4556              -59.77           1.44           84.2          54.21         -6.955          3.199          152.7         -17.02         -32.99          102.7          17.18
    0.4738              -59.76          1.474          84.15          54.21         -6.939          3.205          152.5         -16.93         -33.02          102.6          17.32
     0.492              -59.74          1.512          84.09           54.2         -6.922          3.212          152.2         -16.83         -33.05          102.6          17.47
    0.5102              -59.73          1.555          84.03           54.2         -6.902          3.219          151.9         -16.71         -33.09          102.6          17.65
    0.5285              -59.71          1.604          83.96           54.2          -6.88          3.228          151.6         -16.58         -33.14          102.5          17.85
    0.5467              -59.69           1.66          83.88          54.19         -6.854          3.238          151.2         -16.42         -33.19          102.5          18.08
    0.5649              -59.67          1.724          83.78          54.19         -6.825          3.249          150.8         -16.25         -33.25          102.5          18.34
